<svg xmlns="http://www.w3.org/2000/svg" xmlns:xlink="http://www.w3.org/1999/xlink" width="244.28" height="83.84" viewBox="0 0 244.28 83.84"><defs><style>.a{fill:none;}.b{fill:#1d1d1b;}.c{clip-path:url(#a);}.d{fill:#f8d200;}.e{fill:#e30613;}</style><clipPath id="a"><rect class="a" width="244.273" height="83.84"/></clipPath></defs><g transform="translate(-0.07)"><path class="b" d="M307.33,97.556V58.808h8.108a11.359,11.359,0,0,1,4.571.8,8.51,8.51,0,0,1,3.078,2.153,8.144,8.144,0,0,1,1.715,3.129,13.024,13.024,0,0,1,.517,3.674v1.435a12.234,12.234,0,0,1-.244,2.662,6.344,6.344,0,0,1-.718,1.909,7.592,7.592,0,0,1-2.827,2.612A6.027,6.027,0,0,1,324.4,79.9a10.764,10.764,0,0,1,.926,4.9v2.153q0,5.123-2.476,7.843t-7.929,2.72Zm5.554-33.539v10.67h2.5q2.777,0,3.731-1.385a7.212,7.212,0,0,0,.947-4.061A6.092,6.092,0,0,0,319,65.323q-1.055-1.3-3.839-1.306Zm0,15.571V92h2.4a5.834,5.834,0,0,0,2.641-.488,3.4,3.4,0,0,0,1.435-1.363,5.131,5.131,0,0,0,.6-2.067c.072-.8.108-1.672.108-2.612a17.733,17.733,0,0,0-.158-2.562,4.714,4.714,0,0,0-.653-1.851,3.157,3.157,0,0,0-1.471-1.119,7.176,7.176,0,0,0-2.454-.352Z" transform="translate(-208.531 -52.744)"/><path class="b" d="M170.21,8.43h5.554V47.2H170.21V8.43Z" transform="translate(-48.054 -2.381)"/><path class="b" d="M185.46,47.2V8.43H190.8l7.133,20.529h.108L205.121,8.43h5.389V47.2h-5.554V23.621h-.108l-5.5,16.662h-2.777l-5.446-16.662h-.108V47.2Z" transform="translate(-52.361 -2.381)"/><path class="b" d="M307.36,148.088V121.71h5.6a6.534,6.534,0,0,1,4.944,1.78,7.018,7.018,0,0,1,1.686,5.023v12.342c0,2.468-.6,4.305-1.794,5.461a7.165,7.165,0,0,1-5.174,1.758Zm3.782-22.818v19.267h1.737a2.806,2.806,0,0,0,2.26-.8,3.853,3.853,0,0,0,.667-2.5V128.527a4.011,4.011,0,0,0-.624-2.4,2.712,2.712,0,0,0-2.3-.854Z" transform="translate(-208.539 -70.512)"/><path class="b" d="M340.158,143.033h-7.484v2.562a1.837,1.837,0,0,0,.5,1.371,1.909,1.909,0,0,0,1.356.481,1.5,1.5,0,0,0,1.435-.631,3.509,3.509,0,0,0,.423-1.263h3.782a5.418,5.418,0,0,1-1.521,4,5.353,5.353,0,0,1-1.78,1.22,6.458,6.458,0,0,1-5.353-.294,5.023,5.023,0,0,1-2.461-3.667,13.76,13.76,0,0,1-.151-2.11v-6.193a13.76,13.76,0,0,1,.151-2.11,5.023,5.023,0,0,1,2.461-3.667,5.784,5.784,0,0,1,3.021-.718,5.934,5.934,0,0,1,2.354.445,5.267,5.267,0,0,1,1.794,1.22,6.07,6.07,0,0,1,1.485,4.191v5.181Zm-7.484-2.964h3.7v-2.153a2.282,2.282,0,0,0-.5-1.615,1.744,1.744,0,0,0-1.349-.538,1.772,1.772,0,0,0-1.356.538,2.311,2.311,0,0,0-.5,1.615v2.153Z" transform="translate(-214.623 -73.422)"/><path class="b" d="M360.248,132.3v18.779h-3.782v-1.815h-.072a5.338,5.338,0,0,1-1.435,1.435,3.631,3.631,0,0,1-2.153.574,4.385,4.385,0,0,1-1.435-.237,3.422,3.422,0,0,1-1.263-.8,4.09,4.09,0,0,1-.883-1.435,5.984,5.984,0,0,1-.337-2.153V132.3h3.782v13a2.5,2.5,0,0,0,.481,1.629,1.657,1.657,0,0,0,1.371.6,1.586,1.586,0,0,0,1.478-.667,3.731,3.731,0,0,0,.409-1.93V132.3Z" transform="translate(-220.268 -73.503)"/><path class="b" d="M369.873,130.04V124.3h3.774v5.74h2.332V133h-2.332v10.412a3.266,3.266,0,0,0,.129,1.033.99.99,0,0,0,.431.553,1.572,1.572,0,0,0,.718.23c.287,0,.639.036,1.055.036v3.552h-1.521a5.023,5.023,0,0,1-2.153-.409,3.782,3.782,0,0,1-1.392-1.033,4.09,4.09,0,0,1-.761-1.435,5.368,5.368,0,0,1-.237-1.536V133H368V130.04Z" transform="translate(-225.666 -71.243)"/><path class="b" d="M389.8,137.475a1.88,1.88,0,0,0-.61-1.435,2,2,0,0,0-1.32-.488,1.708,1.708,0,0,0-1.371.574,2.038,2.038,0,0,0-.481,1.32,2.153,2.153,0,0,0,.266,1.019,2.4,2.4,0,0,0,1.327.9l2.224.89a5.4,5.4,0,0,1,2.906,2.224,6.128,6.128,0,0,1,.8,3.071,5.619,5.619,0,0,1-.423,2.21,5.912,5.912,0,0,1-1.17,1.794,5.246,5.246,0,0,1-1.772,1.22,5.626,5.626,0,0,1-2.26.445,5.439,5.439,0,0,1-3.853-1.435,5.238,5.238,0,0,1-1.263-1.758,6.221,6.221,0,0,1-.517-2.468h3.588A3.587,3.587,0,0,0,386.4,147a1.65,1.65,0,0,0,1.5.667,2.225,2.225,0,0,0,1.435-.538,1.83,1.83,0,0,0,.639-1.493,2.153,2.153,0,0,0-.409-1.335,3.208,3.208,0,0,0-1.485-.962l-1.808-.667a6.1,6.1,0,0,1-2.8-1.988,5.023,5.023,0,0,1-1.019-3.2,5.353,5.353,0,0,1,.445-2.2,5.26,5.26,0,0,1,1.22-1.758,5.023,5.023,0,0,1,1.744-1.134,5.869,5.869,0,0,1,2.153-.387,5.475,5.475,0,0,1,2.153.409,4.923,4.923,0,0,1,1.686,1.148,5.525,5.525,0,0,1,1.112,1.758,5.741,5.741,0,0,1,.409,2.153Z" transform="translate(-229.699 -73.418)"/><path class="b" d="M405.514,145.595a1.808,1.808,0,0,0,.5,1.371,1.88,1.88,0,0,0,1.349.481,1.5,1.5,0,0,0,1.435-.631,3.508,3.508,0,0,0,.423-1.263h3.782a5.418,5.418,0,0,1-1.521,4,5.281,5.281,0,0,1-1.78,1.22,6.458,6.458,0,0,1-5.353-.294,5.023,5.023,0,0,1-2.461-3.667,13.753,13.753,0,0,1-.151-2.11v-6.193a13.757,13.757,0,0,1,.151-2.11,5.023,5.023,0,0,1,2.461-3.667,5.8,5.8,0,0,1,3.021-.718,5.905,5.905,0,0,1,2.354.445,5.267,5.267,0,0,1,1.794,1.22,6.271,6.271,0,0,1,1.485,4.305h-3.782a2.44,2.44,0,0,0-.5-1.686,1.772,1.772,0,0,0-1.356-.538,1.744,1.744,0,0,0-1.349.538,2.282,2.282,0,0,0-.5,1.615v7.671Z" transform="translate(-235.195 -73.422)"/><path class="b" d="M421.41,148.088V121.71h3.774v9.414h.079a5.317,5.317,0,0,1,1.435-1.435,3.71,3.71,0,0,1,2.153-.574,4.427,4.427,0,0,1,1.435.237,3.394,3.394,0,0,1,1.256.8,4,4,0,0,1,.89,1.435,5.992,5.992,0,0,1,.33,2.153v14.409h-3.774v-13.06a2.547,2.547,0,0,0-.481-1.629,1.679,1.679,0,0,0-1.371-.6,1.6,1.6,0,0,0-1.485.667,3.732,3.732,0,0,0-.409,1.93v12.629Z" transform="translate(-240.751 -70.512)"/><path class="b" d="M441.688,121.71h3.81v21.082a2.081,2.081,0,0,0,.387,1.435,2.483,2.483,0,0,0,1.435.5v3.552a12.121,12.121,0,0,1-2.332-.2,4.04,4.04,0,0,1-1.78-.8,3.437,3.437,0,0,1-1.127-1.579,7.492,7.492,0,0,1-.395-2.684Z" transform="translate(-246.477 -70.512)"/><path class="b" d="M460.568,150.993V149.07H460.5a7.176,7.176,0,0,1-1.5,1.593,3.588,3.588,0,0,1-2.153.553,4.742,4.742,0,0,1-1.356-.2,3.538,3.538,0,0,1-1.313-.761,3.645,3.645,0,0,1-1.019-1.5,7,7,0,0,1-.388-2.54,13.345,13.345,0,0,1,.258-2.791,4.505,4.505,0,0,1,.961-2.024,4.061,4.061,0,0,1,1.815-1.162,9.106,9.106,0,0,1,2.928-.395h.409a1.88,1.88,0,0,1,.409.043,2.59,2.59,0,0,0,.445,0,3.817,3.817,0,0,1,.552.036v-1.966a2.871,2.871,0,0,0-.409-1.593,1.629,1.629,0,0,0-1.478-.631,2.153,2.153,0,0,0-1.356.488,2.325,2.325,0,0,0-.8,1.435h-3.645a6.028,6.028,0,0,1,1.708-4.076,5.368,5.368,0,0,1,1.78-1.17,6.142,6.142,0,0,1,2.325-.409,6.666,6.666,0,0,1,2.224.366,5.2,5.2,0,0,1,1.808,1.112,5.526,5.526,0,0,1,1.191,1.851,7.032,7.032,0,0,1,.445,2.6V151Zm0-8.073a5.739,5.739,0,0,0-1.04-.115,3.731,3.731,0,0,0-2.088.574,2.332,2.332,0,0,0-.868,2.1,2.77,2.77,0,0,0,.517,1.744,1.722,1.722,0,0,0,1.435.667,1.873,1.873,0,0,0,1.5-.631,2.663,2.663,0,0,0,.538-1.78v-2.555Z" transform="translate(-249.607 -73.418)"/><path class="b" d="M473.81,151V132.222h3.782v1.815h.072A5.239,5.239,0,0,1,479.1,132.6a3.681,3.681,0,0,1,2.153-.574,4.42,4.42,0,0,1,1.435.237,3.337,3.337,0,0,1,1.256.8,4,4,0,0,1,.89,1.435,5.984,5.984,0,0,1,.337,2.153v14.409h-3.782V138a2.5,2.5,0,0,0-.481-1.629,1.665,1.665,0,0,0-1.371-.6,1.6,1.6,0,0,0-1.485.667,3.81,3.81,0,0,0-.4,1.93V151Z" transform="translate(-255.551 -73.425)"/><path class="b" d="M501.935,148.073v-1.7l-.718.761a4.076,4.076,0,0,1-.718.61,3.588,3.588,0,0,1-.926.409,4.7,4.7,0,0,1-1.22.144,3.387,3.387,0,0,1-3.3-1.78,5.024,5.024,0,0,1-.481-1.55,16.357,16.357,0,0,1-.144-2.483v-7.176a29.952,29.952,0,0,1,.108-3,3.588,3.588,0,0,1,1.744-2.777,3.731,3.731,0,0,1,2.11-.481,3.868,3.868,0,0,1,1.98.5,4.477,4.477,0,0,1,1.5,1.435h.079V121.66h3.774v26.378ZM498.189,142a3.473,3.473,0,0,0,.445,1.858,1.55,1.55,0,0,0,1.435.718,1.658,1.658,0,0,0,1.37-.653,2.576,2.576,0,0,0,.524-1.686v-7.348a2.074,2.074,0,0,0-.538-1.435,1.787,1.787,0,0,0-1.356-.574,1.564,1.564,0,0,0-1.435.667,3.057,3.057,0,0,0-.388,1.557V142Z" transform="translate(-261.373 -70.498)"/><path class="b" d="M231.56,15.98l3.868-6.315h-3.717V8.51h5.3v.976l-3.882,6.343h3.882v1.227H231.56V15.98Z" transform="translate(-65.381 -2.404)"/><path class="b" d="M411.27,65.757a1.392,1.392,0,0,0,1.435,1.5,1.815,1.815,0,0,0,1.328-.588l.89.718a2.87,2.87,0,0,1-2.2.983,3.158,3.158,0,0,1-.933-.136,2.089,2.089,0,0,1-.445-.208,1.9,1.9,0,0,1-.431-.273,2.425,2.425,0,0,1-.624-.947,3.724,3.724,0,0,1-.266-1.528,4.12,4.12,0,0,1,.23-1.5,2.605,2.605,0,0,1,.581-.962,2.253,2.253,0,0,1,.818-.517,2.72,2.72,0,0,1,.875-.158,2.458,2.458,0,0,1,2.483,2.6v1Zm2.569-1a1.557,1.557,0,0,0-.38-1.076,1.234,1.234,0,0,0-.9-.344,1.22,1.22,0,0,0-.9.344,1.629,1.629,0,0,0-.388,1.076Z" transform="translate(-237.536 -53.687)"/><path class="b" d="M418.829,62.271h1.22v.646h0a1.959,1.959,0,0,1,1.579-.718,2.081,2.081,0,0,1,1.385.538,2.052,2.052,0,0,1,.653,1.579v4.047h-1.227V64.776a1.306,1.306,0,0,0-.344-.976,1.218,1.218,0,0,0-2.074.976v3.588H418.8V62.271Z" transform="translate(-240.014 -53.704)"/><path class="b" d="M427.686,59.72h1.227v1.851h.89V62.5h-.89v3.545c0,.309.136.459.431.452h.459v1.155h-.624a1.416,1.416,0,0,1-1.478-1.5V62.5h-.61v-.933h.61V59.72Z" transform="translate(-242.355 -53.004)"/><path class="b" d="M432.47,62.265h1.22v.646h0a2.024,2.024,0,0,1,2.87-.251l-.84,1.055a1.292,1.292,0,0,0-.8-.3,1.162,1.162,0,0,0-.8.3,1.22,1.22,0,0,0-.388.969V68.35h-1.22V62.265Z" transform="translate(-243.875 -53.698)"/><path class="b" d="M438.77,62.3H440v3.588a1.313,1.313,0,0,0,.344.962,1.177,1.177,0,0,0,.868.344,1.148,1.148,0,0,0,.861-.344,1.313,1.313,0,0,0,.337-.962V62.3h1.227v6.085h-1.227v-.653h0a1.952,1.952,0,0,1-1.579.718,2.06,2.06,0,0,1-1.363-.545,1.923,1.923,0,0,1-.674-1.564V62.3Z" transform="translate(-245.654 -53.732)"/><path class="b" d="M447.85,62.27h1.227v.646h0a1.973,1.973,0,0,1,1.593-.718,2.282,2.282,0,0,1,1.019.215,3.523,3.523,0,0,1,.718.581,2.39,2.39,0,0,1,1.916-.8,2.024,2.024,0,0,1,2.031,2.153V68.4h-1.22V64.811a1.334,1.334,0,0,0-.337-.976,1.17,1.17,0,0,0-.861-.337,1.2,1.2,0,0,0-.868.337,1.306,1.306,0,0,0-.344.976V68.4H451.5V64.811a1.334,1.334,0,0,0-.337-.976,1.2,1.2,0,0,0-.868-.337,1.17,1.17,0,0,0-.861.337,1.277,1.277,0,0,0-.352.976V68.4h-1.227V62.27Z" transform="translate(-248.219 -53.703)"/><path class="b" d="M466.04,62.264h-.61v-.933h.61v-.8a1.579,1.579,0,0,1,.517-1.277,1.808,1.808,0,0,1,1.177-.38h.789v1.155h-.718c-.366,0-.545.158-.531.5v.8H468.5v.933h-1.227v5.152h-1.227V62.264Z" transform="translate(-253.184 -52.763)"/><path class="b" d="M470.66,61.416h1.227V65a1.313,1.313,0,0,0,.344.962,1.177,1.177,0,0,0,.868.344,1.148,1.148,0,0,0,.861-.344A1.313,1.313,0,0,0,474.3,65V61.416h1.227V67.5H474.3v-.653h0a1.952,1.952,0,0,1-1.579.718,2.059,2.059,0,0,1-1.363-.545,1.923,1.923,0,0,1-.674-1.564v-4.04Zm.718-2.246h1.292v1.313h-1.292Zm2.11,0h1.3v1.313h-1.3Z" transform="translate(-254.661 -52.848)"/><path class="b" d="M479.647,62.265h1.22v.646h0a2.024,2.024,0,0,1,2.87-.251l-.89,1.055a1.292,1.292,0,0,0-.8-.3,1.162,1.162,0,0,0-.8.3,1.191,1.191,0,0,0-.388.969V68.35h-1.22V62.265Z" transform="translate(-257.197 -53.698)"/><path class="b" d="M493.807,66.778a2.085,2.085,0,0,1-3.208-.072,1.608,1.608,0,0,1-.337-.775,12.977,12.977,0,0,1,0-3.107,1.585,1.585,0,0,1,.337-.761,1.894,1.894,0,0,1,1.6-.811,1.952,1.952,0,0,1,.868.194,3.659,3.659,0,0,1,.718.531V58.87H495v8.546h-1.22v-.639ZM492.6,62.472a1.27,1.27,0,0,0-.66.144.875.875,0,0,0-.366.438,1.967,1.967,0,0,0-.151.6c0,.23-.036.466-.036.718a4.074,4.074,0,0,0,.036.675,2,2,0,0,0,.151.617.94.94,0,0,0,.366.438,1.134,1.134,0,0,0,.66.165,1.17,1.17,0,0,0,.718-.179.876.876,0,0,0,.344-.445,2.216,2.216,0,0,0,.158-.617c0-.222,0-.438,0-.653v-.675a2.2,2.2,0,0,0-.158-.6.847.847,0,0,0-.344-.445,1.227,1.227,0,0,0-.718-.172" transform="translate(-260.17 -52.764)"/><path class="b" d="M499.3,58.87h1.22V60.1H499.3Zm0,2.461h1.22v6.085H499.3Z" transform="translate(-262.75 -52.764)"/><path class="b" d="M504.17,65.757a1.392,1.392,0,0,0,1.435,1.5,1.816,1.816,0,0,0,1.328-.588l.89.718a2.87,2.87,0,0,1-2.2.983,3.157,3.157,0,0,1-.933-.136,2.325,2.325,0,0,1-.452-.208,2.031,2.031,0,0,1-.423-.273,2.519,2.519,0,0,1-.632-.947,3.854,3.854,0,0,1-.258-1.528,4.119,4.119,0,0,1,.23-1.5,2.6,2.6,0,0,1,.581-.962,2.253,2.253,0,0,1,.818-.517,2.719,2.719,0,0,1,.875-.158,2.458,2.458,0,0,1,2.483,2.6v1Zm2.569-1a1.557,1.557,0,0,0-.38-1.076,1.356,1.356,0,0,0-1.808,0,1.672,1.672,0,0,0-.38,1.076Z" transform="translate(-263.774 -53.687)"/><path class="b" d="M401.27,79.809h2.992a2.87,2.87,0,0,1,2.6,1.435,2.634,2.634,0,0,1,.395,1.012,17.276,17.276,0,0,1,.065,1.823,12.553,12.553,0,0,1-.1,1.916,1.909,1.909,0,0,1-.144.5,3.781,3.781,0,0,1-.237.438,2.957,2.957,0,0,1-1.04,1,2.992,2.992,0,0,1-1.629.423H401.3V79.809Zm1.3,7.312h1.543A1.758,1.758,0,0,0,405.7,86.4a1.385,1.385,0,0,0,.273-.718,14.821,14.821,0,0,0,.05-1.557,13.067,13.067,0,0,0-.05-1.593,1.435,1.435,0,0,0-.33-.782,1.729,1.729,0,0,0-1.528-.718h-1.543Z" transform="translate(-235.063 -58.677)"/><path class="b" d="M411.7,79.81h1.227v1.227H411.7Zm0,2.461h1.227v6.085H411.7Z" transform="translate(-238.009 -58.678)"/><path class="b" d="M419,88.677a2.052,2.052,0,0,1-1.571.718,1.93,1.93,0,0,1-.983-.251,2.31,2.31,0,0,1-.624-.5,1.829,1.829,0,0,1-.352-.718,8.015,8.015,0,0,1-.108-1.629,8.2,8.2,0,0,1,.108-1.658,1.758,1.758,0,0,1,.352-.718,1.959,1.959,0,0,1,1.607-.718,2.052,2.052,0,0,1,1.571.718v-.646h1.227v5.934a2.547,2.547,0,0,1-.789,2.016,2.748,2.748,0,0,1-1.858.667,2.87,2.87,0,0,1-2.11-1.019l.954-.761a2.4,2.4,0,0,0,.538.373,1.507,1.507,0,0,0,.646.179,1.435,1.435,0,0,0,1-.344,1.306,1.306,0,0,0,.388-.976v-.624Zm-2.411-2.4a7.077,7.077,0,0,0,.043.962.9.9,0,0,0,.194.452,1.012,1.012,0,0,0,.373.3,1.062,1.062,0,0,0,.6.165,1.04,1.04,0,0,0,.6-.165,1.112,1.112,0,0,0,.366-.3.969.969,0,0,0,.2-.452A9.11,9.11,0,0,0,419,86.28a9.505,9.505,0,0,0-.036-.983.883.883,0,0,0-.2-.445,1.371,1.371,0,0,0-.366-.323,1.234,1.234,0,0,0-.6-.151,1.27,1.27,0,0,0-.6.151,1.212,1.212,0,0,0-.373.323.818.818,0,0,0-.194.445,7.387,7.387,0,0,0-.043.983" transform="translate(-239.04 -59.637)"/><path class="b" d="M424.39,79.81h1.227v1.227H424.39Zm0,2.461h1.227v6.085H424.39Z" transform="translate(-241.593 -58.678)"/><path class="b" d="M428.21,80.66h1.227v1.851h.89v.933h-.89v3.545q0,.459.431.452h.459V88.6h-.639a1.415,1.415,0,0,1-1.478-1.5V83.444h-.61v-.933h.61Z" transform="translate(-242.499 -58.918)"/><path class="b" d="M436.013,88.791h0a1,1,0,0,1-.531.452,2.368,2.368,0,0,1-.969.158,2.217,2.217,0,0,1-1.571-.538,1.823,1.823,0,0,1-.079-2.59,2.016,2.016,0,0,1,1.478-.531h1.693V85.1c0-.538-.409-.8-1.249-.782a2.346,2.346,0,0,0-.718.093.9.9,0,0,0-.438.38l-.962-.718a2.361,2.361,0,0,1,2.059-.89,3.3,3.3,0,0,1,1.837.431,1.772,1.772,0,0,1,.718,1.571v4.155h-1.227v-.553Zm0-2.038h-1.435q-1.069,0-1.055.718a.653.653,0,0,0,.273.524,1.3,1.3,0,0,0,.875.244,2.153,2.153,0,0,0,1.084-.187c.194-.129.287-.416.287-.875v-.438Z" transform="translate(-243.844 -59.629)"/><path class="b" d="M441.357,79.81h1.227v6.975c0,.28.151.416.459.416h.416v1.155h-.545a1.744,1.744,0,0,1-1.1-.337,1.313,1.313,0,0,1-.459-1.141V79.81Z" transform="translate(-246.383 -58.678)"/><path class="b" d="M445.72,79.81h1.227v1.227H445.72Zm0,2.461h1.227v6.085H445.72Z" transform="translate(-247.617 -58.678)"/><path class="b" d="M451.538,88.208A1.629,1.629,0,0,0,452.4,88a.639.639,0,0,0,.33-.574.5.5,0,0,0-.2-.459,1.07,1.07,0,0,0-.545-.144l-1.076-.093a2.1,2.1,0,0,1-1.249-.517,1.579,1.579,0,0,1-.5-1.213,1.65,1.65,0,0,1,.66-1.435,2.619,2.619,0,0,1,1.607-.466,4.793,4.793,0,0,1,.753.05,3.114,3.114,0,0,1,1.636.782l-.753.883a3.475,3.475,0,0,0-.718-.416,2.432,2.432,0,0,0-.89-.151,1.213,1.213,0,0,0-.8.208.674.674,0,0,0-.237.531.4.4,0,0,0,.179.352,1.062,1.062,0,0,0,.624.222l1,.072a1.894,1.894,0,0,1,1.371.574,1.93,1.93,0,0,1,.395,1.249,1.571,1.571,0,0,1-.718,1.363,3.085,3.085,0,0,1-1.794.509,3.882,3.882,0,0,1-2.684-1.091l.861-.84a2.547,2.547,0,0,0,1.923.782" transform="translate(-248.484 -59.606)"/><path class="b" d="M457.76,79.81h1.227v1.227H457.76Zm0,2.461h1.227v6.085H457.76Z" transform="translate(-251.018 -58.678)"/><path class="b" d="M462.519,86.7a1.393,1.393,0,0,0,1.457,1.5,1.823,1.823,0,0,0,1.328-.6l.883.718a2.87,2.87,0,0,1-2.189.99,3.215,3.215,0,0,1-.94-.144,2.268,2.268,0,0,1-.445-.208,2.032,2.032,0,0,1-.423-.273,2.518,2.518,0,0,1-.631-.947,3.832,3.832,0,0,1-.258-1.528,4.305,4.305,0,0,1,.222-1.5,2.776,2.776,0,0,1,.588-.962,2.153,2.153,0,0,1,.818-.509,2.476,2.476,0,0,1,3.387,2.411v1.012Zm2.569-1.012a1.528,1.528,0,0,0-.38-1.069,1.335,1.335,0,0,0-1.808,0,1.593,1.593,0,0,0-.38,1.069Z" transform="translate(-252.017 -59.598)"/><path class="b" d="M470.074,83.21H471.3v.646h0a2.052,2.052,0,0,1,2.87-.251l-.89,1.062a1.256,1.256,0,0,0-.8-.309,1.127,1.127,0,0,0-.8.309,1.17,1.17,0,0,0-.387.962V89.3H470.06V83.21Z" transform="translate(-254.492 -59.617)"/><path class="b" d="M476.39,83.24h1.227v3.624a1.306,1.306,0,0,0,.344.962,1.256,1.256,0,0,0,1.729,0,1.328,1.328,0,0,0,.337-.962V83.24h1.227v6.085h-1.227v-.653h0a1.966,1.966,0,0,1-1.579.718,2.052,2.052,0,0,1-1.363-.553,1.887,1.887,0,0,1-.674-1.557V83.24Z" transform="translate(-256.279 -59.647)"/><path class="b" d="M485.362,83.211h1.227v.646h0a1.966,1.966,0,0,1,1.586-.718,2.024,2.024,0,0,1,2.031,2.11V89.3h-1.227V85.708a1.284,1.284,0,0,0-.337-.969,1.148,1.148,0,0,0-.861-.344,1.177,1.177,0,0,0-.868.344,1.284,1.284,0,0,0-.344.969V89.3H485.34V83.211Z" transform="translate(-258.807 -59.618)"/><path class="b" d="M497.686,88.669a2.052,2.052,0,0,1-1.564.718,1.98,1.98,0,0,1-.99-.251,2.31,2.31,0,0,1-.624-.5,1.923,1.923,0,0,1-.344-.718,7.366,7.366,0,0,1-.115-1.629,7.551,7.551,0,0,1,.115-1.658,1.837,1.837,0,0,1,.344-.718,2.1,2.1,0,0,1,.624-.517,2.153,2.153,0,0,1,.99-.222,2.045,2.045,0,0,1,1.564.718v-.646h1.227v5.934a2.547,2.547,0,0,1-.789,2.016,2.741,2.741,0,0,1-1.851.667,2.813,2.813,0,0,1-2.11-1.019l.947-.761a2.4,2.4,0,0,0,.538.373,1.507,1.507,0,0,0,.646.179,1.435,1.435,0,0,0,1.012-.344,1.328,1.328,0,0,0,.38-.976V88.7Zm-2.411-2.4a5.788,5.788,0,0,0,.05.962.833.833,0,0,0,.187.452,1.22,1.22,0,0,0,1.571.3,1.091,1.091,0,0,0,.574-.718c0-.179,0-.5,0-.962v-.983a.889.889,0,0,0-.208-.445,1.177,1.177,0,0,0-.366-.323,1.241,1.241,0,0,0-1.571.323.767.767,0,0,0-.187.445,6.05,6.05,0,0,0-.05.983" transform="translate(-261.265 -59.629)"/><path class="b" d="M404.928,108.8a2.085,2.085,0,0,1-3.207-.072,1.542,1.542,0,0,1-.337-.782,12.915,12.915,0,0,1,0-3.1,1.521,1.521,0,0,1,.337-.761,1.894,1.894,0,0,1,1.629-.8,1.974,1.974,0,0,1,.868.194,3.659,3.659,0,0,1,.718.531V100.9h1.22v8.539h-1.22V108.8Zm-1.206-4.305a1.27,1.27,0,0,0-.66.144.911.911,0,0,0-.366.438,1.966,1.966,0,0,0-.151.6c0,.23-.036.466-.036.718a4.077,4.077,0,0,0,.036.675,2,2,0,0,0,.151.617.983.983,0,0,0,.366.438,1.134,1.134,0,0,0,.66.165,1.227,1.227,0,0,0,.718-.179.875.875,0,0,0,.344-.445,2.286,2.286,0,0,0,.158-.617v-1.327a2.2,2.2,0,0,0-.158-.6.847.847,0,0,0-.344-.445,1.227,1.227,0,0,0-.718-.172" transform="translate(-235.068 -64.634)"/><path class="b" d="M410.77,107.787a1.385,1.385,0,0,0,1.435,1.5,1.837,1.837,0,0,0,1.335-.588l.883.718a2.87,2.87,0,0,1-2.189.983,3.171,3.171,0,0,1-.94-.136,2.268,2.268,0,0,1-.445-.208,2.081,2.081,0,0,1-.431-.273,2.4,2.4,0,0,1-.624-.954,3.66,3.66,0,0,1-.265-1.521,4.306,4.306,0,0,1,.23-1.5,2.6,2.6,0,0,1,.581-.962,2.253,2.253,0,0,1,.818-.517,2.72,2.72,0,0,1,.875-.158,2.519,2.519,0,0,1,1.765.718,2.483,2.483,0,0,1,.718,1.887v1Zm2.562-1a1.557,1.557,0,0,0-.38-1.076,1.349,1.349,0,0,0-1.8,0,1.629,1.629,0,0,0-.38,1.076Z" transform="translate(-237.395 -65.558)"/><path class="b" d="M420.405,109.288a1.629,1.629,0,0,0,.861-.2.646.646,0,0,0,.337-.574.509.509,0,0,0-.2-.459,1.019,1.019,0,0,0-.545-.144l-1.076-.1a2.016,2.016,0,0,1-1.249-.509,1.564,1.564,0,0,1-.5-1.213,1.622,1.622,0,0,1,.66-1.435,2.6,2.6,0,0,1,1.607-.474,4.736,4.736,0,0,1,.753.057,3.968,3.968,0,0,1,.624.158,3.717,3.717,0,0,1,1.012.617l-.761.883a3.724,3.724,0,0,0-.718-.409,2.462,2.462,0,0,0-.89-.151,1.2,1.2,0,0,0-.8.208.646.646,0,0,0-.244.524.431.431,0,0,0,.179.359,1.062,1.062,0,0,0,.624.215l1.012.079a1.88,1.88,0,0,1,1.371.574,1.952,1.952,0,0,1,.387,1.249,1.579,1.579,0,0,1-.718,1.363,3.107,3.107,0,0,1-1.8.5,3.832,3.832,0,0,1-2.677-1.091l.854-.832a2.555,2.555,0,0,0,1.923.775" transform="translate(-239.689 -65.56)"/><path class="b" d="M430.744,100.9h3.315a2.6,2.6,0,0,1,1.887.631,2.2,2.2,0,0,1,.639,1.658,1.959,1.959,0,0,1-.251,1.012,1.529,1.529,0,0,1-.388.431,2.949,2.949,0,0,1-.617.395h0a1.722,1.722,0,0,1,1.055.718,2.39,2.39,0,0,1,.33,1.234,2.346,2.346,0,0,1-.718,1.758,2.3,2.3,0,0,1-1.679.667H430.73v-8.5Zm1.3,1.155v2.44h1.866a1.363,1.363,0,0,0,1.048-.366,1.184,1.184,0,0,0,.337-.854,1.234,1.234,0,0,0-.337-.875,1.478,1.478,0,0,0-1.048-.344Zm0,3.588v2.569h1.988a1.349,1.349,0,0,0,1.055-.395,1.3,1.3,0,0,0,.337-.89,1.32,1.32,0,0,0-.337-.9,1.392,1.392,0,0,0-1.055-.38Z" transform="translate(-243.383 -64.632)"/><path class="b" d="M443.812,109.841h0a1.019,1.019,0,0,1-.531.459,2.555,2.555,0,0,1-.976.151,2.21,2.21,0,0,1-1.564-.538,1.686,1.686,0,0,1-.581-1.32,1.722,1.722,0,0,1,.5-1.27,2,2,0,0,1,1.478-.524h1.693v-.639c0-.538-.409-.8-1.249-.782a2.188,2.188,0,0,0-.718.093.94.94,0,0,0-.43.373l-.962-.718a2.375,2.375,0,0,1,2.059-.89,3.214,3.214,0,0,1,1.83.438,1.758,1.758,0,0,1,.718,1.571v4.148h-1.22v-.538Zm0-2.038h-1.435q-1.076,0-1.055.718a.646.646,0,0,0,.273.531,1.292,1.292,0,0,0,.875.237,2.152,2.152,0,0,0,1.083-.179c.187-.129.287-.423.287-.883v-.438Z" transform="translate(-246.046 -65.574)"/><path class="b" d="M449.16,104.33h1.227v3.588a1.284,1.284,0,0,0,.344.954,1.141,1.141,0,0,0,.868.352,1.126,1.126,0,0,0,.861-.352,1.313,1.313,0,0,0,.337-.954V104.33h1.227v6.078H452.8v-.646h0a1.952,1.952,0,0,1-1.579.718,2.045,2.045,0,0,1-1.363-.545,1.9,1.9,0,0,1-.675-1.564v-4.04Z" transform="translate(-248.589 -65.603)"/><path class="b" d="M291.72,55.793h-.029l-1.27,4.262h-1.076L287.4,53.97h1.292l1.17,4.262h.022l1.385-4.262h.883l1.385,4.262h.022l1.162-4.262h1.292l-1.937,6.085H292.99l-1.27-4.262Z" transform="translate(-81.153 -15.243)"/><path class="b" d="M471.026,107.787a1.394,1.394,0,0,0,1.457,1.5,1.815,1.815,0,0,0,1.327-.588l.883.718a2.87,2.87,0,0,1-2.189.983,3.208,3.208,0,0,1-.94-.136,2.268,2.268,0,0,1-.445-.208,2.032,2.032,0,0,1-.423-.273,2.49,2.49,0,0,1-.631-.954,3.782,3.782,0,0,1-.265-1.521,4.3,4.3,0,0,1,.23-1.5,2.711,2.711,0,0,1,.588-.962,2.289,2.289,0,0,1,.811-.517,2.8,2.8,0,0,1,.883-.158,2.519,2.519,0,0,1,1.765.718,2.476,2.476,0,0,1,.718,1.887v1Zm2.569-1a1.557,1.557,0,0,0-.38-1.076,1.356,1.356,0,0,0-1.808,0,1.629,1.629,0,0,0-.38,1.076Z" transform="translate(-254.417 -65.558)"/><path class="b" d="M480.438,109.288a1.629,1.629,0,0,0,.861-.2.639.639,0,0,0,.33-.574.5.5,0,0,0-.2-.459,1,1,0,0,0-.545-.143l-1.076-.1a2.052,2.052,0,0,1-1.249-.509,1.564,1.564,0,0,1-.5-1.213,1.636,1.636,0,0,1,.66-1.435,2.619,2.619,0,0,1,1.607-.474,4.736,4.736,0,0,1,.753.057,4.06,4.06,0,0,1,.631.158,3.674,3.674,0,0,1,1,.617l-.753.883a3.774,3.774,0,0,0-.718-.409,2.433,2.433,0,0,0-.89-.151,1.213,1.213,0,0,0-.8.208.66.66,0,0,0-.237.524.416.416,0,0,0,.179.359,1.019,1.019,0,0,0,.624.215l1,.079a1.866,1.866,0,0,1,1.371.574,1.916,1.916,0,0,1,.395,1.249,1.579,1.579,0,0,1-.718,1.363,3.1,3.1,0,0,1-1.794.5,3.853,3.853,0,0,1-2.684-1.091l.861-.832a2.54,2.54,0,0,0,1.923.775" transform="translate(-256.647 -65.56)"/><path class="b" d="M487.43,107.8a1.393,1.393,0,0,0,1.457,1.5,1.815,1.815,0,0,0,1.327-.588l.883.718a2.87,2.87,0,0,1-2.16,1.019,3.208,3.208,0,0,1-.94-.136,2.268,2.268,0,0,1-.445-.208,2.031,2.031,0,0,1-.423-.273,2.49,2.49,0,0,1-.631-.954,3.789,3.789,0,0,1-.258-1.521,4.306,4.306,0,0,1,.222-1.5,2.713,2.713,0,0,1,.588-.962,2.253,2.253,0,0,1,.818-.517,2.719,2.719,0,0,1,.875-.158,2.454,2.454,0,0,1,2.511,2.576v1Zm2.569-1a1.557,1.557,0,0,0-.38-1.076,1.356,1.356,0,0,0-1.808,0,1.629,1.629,0,0,0-.38,1.076Z" transform="translate(-259.061 -65.572)"/><path class="b" d="M495,104.3h1.22v.646h0a1.973,1.973,0,0,1,1.586-.718,2.153,2.153,0,0,1,1.385.531,2.081,2.081,0,0,1,.646,1.586v4.04h-1.22V106.8a1.292,1.292,0,0,0-.344-.976,1.17,1.17,0,0,0-.861-.337,1.2,1.2,0,0,0-.868.337,1.292,1.292,0,0,0-.344.976v3.588H495v-6.078Z" transform="translate(-261.536 -65.575)"/><g class="c" transform="translate(0.07)"><path class="b" d="M505.575,109.288a1.629,1.629,0,0,0,.861-.2.639.639,0,0,0,.33-.574.509.509,0,0,0-.194-.459,1.019,1.019,0,0,0-.545-.143l-1.076-.1a2.016,2.016,0,0,1-1.249-.509,1.571,1.571,0,0,1-.509-1.213,1.629,1.629,0,0,1,.667-1.435,2.583,2.583,0,0,1,1.6-.474,4.766,4.766,0,0,1,.761.057,3.967,3.967,0,0,1,.624.158,3.824,3.824,0,0,1,1.012.617l-.761.883a3.727,3.727,0,0,0-.718-.409,2.476,2.476,0,0,0-.9-.151,1.191,1.191,0,0,0-.8.208.646.646,0,0,0-.244.524.416.416,0,0,0,.179.359,1.062,1.062,0,0,0,.624.215l1,.079a1.851,1.851,0,0,1,1.371.574,1.916,1.916,0,0,1,.395,1.249,1.579,1.579,0,0,1-.718,1.363,3.121,3.121,0,0,1-1.8.5,3.832,3.832,0,0,1-2.677-1.091l.854-.832a2.54,2.54,0,0,0,1.923.775" transform="translate(-263.814 -65.56)"/><path class="b" d="M208.751,119.712H181.289a1.679,1.679,0,0,1-1.227-.531,39.781,39.781,0,0,1-8.273-15.707,1.679,1.679,0,1,1,3.243-.854,37.5,37.5,0,0,0,7.025,13.741h26.012l19.1-18.42V56.789c-3.186-1.356-14.351-5.346-26.837-1.22a1.679,1.679,0,0,1-1.055-3.186,42.006,42.006,0,0,1,30.339,1.837,1.672,1.672,0,0,1,.911,1.493V98.652a1.679,1.679,0,0,1-.517,1.213L209.92,119.239a1.679,1.679,0,0,1-1.162.466Z" transform="translate(-170.296 -50.367)"/></g><path class="b" d="M196.381,130.739a1.65,1.65,0,0,1-.854-.237c-.531-.316-5.217-3.121-7.1-5.188a1.679,1.679,0,0,1,2.476-2.26,24.282,24.282,0,0,0,3.8,2.956V59.679a1.679,1.679,0,1,1,3.358,0v69.36a1.679,1.679,0,0,1-.847,1.435,1.722,1.722,0,0,1-.832.222Z" transform="translate(-174.841 -52.518)"/><g class="c" transform="translate(0.07)"><path class="b" d="M257.954,79.371h-43.1a1.715,1.715,0,0,1-1.191-.488l-9.96-9.953a1.665,1.665,0,0,1-.488-1.184V56.7a1.679,1.679,0,1,1,3.351,0V67.05l8.984,8.984h39.76a39.517,39.517,0,0,0-14.581-15.585,1.679,1.679,0,0,1,1.686-2.87,42.064,42.064,0,0,1,17.1,19.561,1.658,1.658,0,0,1-.187,1.55,1.686,1.686,0,0,1-1.378.718Z" transform="translate(-179.195 -51.644)"/><path class="d" d="M212.315,152.639a47.144,47.144,0,0,1-17.8-3.688,1.679,1.679,0,1,1,1.256-3.114c13.038,5.281,25.05,4.571,35.72-2.1a42.667,42.667,0,0,0,11.395-10.512l-15.126-14.193h-55.8a1.679,1.679,0,0,1,0-3.358h56.465a1.686,1.686,0,0,1,1.148.452l16.669,15.65a1.672,1.672,0,0,1,.28,2.11,44.633,44.633,0,0,1-13.246,12.7,39.2,39.2,0,0,1-20.96,6.056Z" transform="translate(-169.893 -68.806)"/><path class="e" d="M247.086,115.758a1.621,1.621,0,0,1-.782-.194,1.672,1.672,0,0,1-.718-2.268,38.978,38.978,0,0,0,3.129-27.892l-42.666.179L192.3,99a1.672,1.672,0,0,1-1.17.481H171.447a1.672,1.672,0,0,1-1.665-1.5,39.811,39.811,0,0,1,1.177-12.73A40.9,40.9,0,0,1,186.33,62a1.679,1.679,0,0,1,2.009,2.691c-14.437,10.763-15.377,26.55-15.3,31.436h17.4L204.19,82.715a1.672,1.672,0,0,1,1.17-.481l44.6-.179h0a1.665,1.665,0,0,1,1.571,1.1,41.475,41.475,0,0,1-2.971,31.716,1.672,1.672,0,0,1-1.485.9Z" transform="translate(-169.725 -53.553)"/></g></g></svg>